<svg width="58" height="63" viewBox="0 0 58 63" fill="none" xmlns="http://www.w3.org/2000/svg">
<g clip-path="url(#clip0)">
<rect x="1" y="5" width="20" height="59" fill="white"/>
<path d="M22.9688 45.5938H12.2812V64H6.25V18.5H21.3125C26.4375 18.5 30.375 19.6667 33.125 22C35.8958 24.3333 37.2812 27.7292 37.2812 32.1875C37.2812 35.0208 36.5104 37.4896 34.9688 39.5938C33.4479 41.6979 31.3229 43.2708 28.5938 44.3125L39.2812 63.625V64H32.8438L22.9688 45.5938ZM12.2812 40.6875H21.5C24.4792 40.6875 26.8438 39.9167 28.5938 38.375C30.3646 36.8333 31.25 34.7708 31.25 32.1875C31.25 29.375 30.4062 27.2188 28.7188 25.7188C27.0521 24.2188 24.6354 23.4583 21.4688 23.4375H12.2812V40.6875ZM44.9375 60.9688C44.9375 59.9688 45.2292 59.1354 45.8125 58.4688C46.4167 57.8021 47.3125 57.4688 48.5 57.4688C49.6875 57.4688 50.5833 57.8021 51.1875 58.4688C51.8125 59.1354 52.125 59.9688 52.125 60.9688C52.125 61.9271 51.8125 62.7292 51.1875 63.375C50.5833 64.0208 49.6875 64.3438 48.5 64.3438C47.3125 64.3438 46.4167 64.0208 45.8125 63.375C45.2292 62.7292 44.9375 61.9271 44.9375 60.9688Z" fill="#FEB633"/>
</g>
<defs>
<clipPath id="clip0">
<rect width="58" height="63" fill="white"/>
</clipPath>
</defs>
</svg>
